<svg width="70" height="70" viewBox="0 0 70 70" fill="none" xmlns="http://www.w3.org/2000/svg">
<path d="M64.7711 1.70108L61.9247 4.54747C47.0152 19.4569 22.8421 19.4569 7.93261 4.54746L5.08624 1.70108C4.15145 0.766305 2.63587 0.766305 1.70109 1.70108C0.766302 2.63586 0.766312 4.15146 1.70109 5.08624L4.54746 7.93261C19.457 22.8421 19.457 47.0152 4.54746 61.9247L1.70109 64.771C0.766302 65.7058 0.766302 67.2214 1.70109 68.1562C2.63587 69.091 4.15146 69.091 5.08624 68.1562L7.93261 65.3098C22.8422 50.4003 47.0152 50.4003 61.9247 65.3098L64.7711 68.1562C65.7059 69.091 67.2215 69.091 68.1563 68.1562C69.091 67.2214 69.091 65.7058 68.1563 64.771L65.3099 61.9247C50.4004 47.0152 50.4004 22.8421 65.3099 7.93261L68.1563 5.08624C69.091 4.15146 69.091 2.63586 68.1563 1.70108C67.2215 0.766305 65.7059 0.766305 64.7711 1.70108Z" fill="black" stroke="black" stroke-width="2"/>
</svg>
